<?xml version="1.0" encoding="iso-8859-1"?>
<!-- Uploaded to: SVG Repo, www.svgrepo.com, Generator: SVG Repo Mixer Tools -->
<svg height="800px" width="800px" version="1.1" id="Layer_1" xmlns="http://www.w3.org/2000/svg" xmlns:xlink="http://www.w3.org/1999/xlink" 
	 viewBox="0 0 512 512" xml:space="preserve">
<g>
	<path style="fill:#ED589C;" d="M385.026,261.892c-20.076,49.171-57.504,86.024-102.319,106.393
		c-8.569,3.894-18.714-0.247-22.108-9.026c-17.753-45.914-18.69-98.432,1.387-147.603s57.504-86.025,102.319-106.393
		c8.569-3.894,18.714,0.247,22.108,9.026C404.165,160.203,405.103,212.721,385.026,261.892z"/>
	<path style="fill:#ED589C;" d="M401.584,405.556c-49.632,18.907-102.114,16.727-147.595-2.107
		c-8.696-3.601-12.597-13.841-8.501-22.316c21.422-44.32,59.153-80.866,108.785-99.773s102.114-16.727,147.595,2.107
		c8.696,3.601,12.597,13.841,8.501,22.316C488.946,350.104,451.217,386.649,401.584,405.556z"/>
</g>
<g>
	<path style="fill:#EA4296;" d="M454.673,270.4c-32.779-4.881-67.225-1.677-100.401,10.961
		c-49.633,18.907-87.362,55.452-108.785,99.773c-4.096,8.474-0.195,18.714,8.501,22.316c12.611,5.223,25.761,9.158,39.239,11.725
		c39.226-11.208,76.234-32.245,107.127-63.139C424.459,327.932,442.554,300.1,454.673,270.4z"/>
	<path style="fill:#EA4296;" d="M328.376,126.337c-28.615,21.062-51.974,50.015-66.389,85.318
		c-20.076,49.171-19.139,101.689-1.387,147.603c3.395,8.779,13.539,12.921,22.108,9.027c16.486-7.492,31.964-17.223,45.955-28.969
		c13.371-32.752,20.747-68.586,20.747-106.147C349.408,195.344,341.925,159.273,328.376,126.337z"/>
</g>
<path style="fill:#F1709F;" d="M388.967,340.647c-37.556,37.556-86.337,57.034-135.542,58.454
	c-9.408,0.272-17.157-7.477-16.885-16.885c1.419-49.206,20.898-97.988,58.454-135.542s86.337-57.034,135.542-58.454
	c9.408-0.272,17.157,7.477,16.885,16.885C446.001,254.311,426.522,303.091,388.967,340.647z"/>
<g>
	<path style="fill:#ED589C;" d="M236.538,382.215c-0.272,9.408,7.477,17.157,16.885,16.885c15.717-0.453,31.389-2.758,46.667-6.897
		c31.1-45.227,49.318-99.998,49.318-159.036c0-8.313-0.381-16.535-1.088-24.665c-19.258,9.442-37.316,22.156-53.329,38.169
		C257.436,284.228,237.957,333.009,236.538,382.215z"/>
	<path style="fill:#ED589C;" d="M126.974,261.892c20.076,49.171,57.504,86.024,102.319,106.393
		c8.569,3.894,18.714-0.247,22.108-9.026c17.753-45.914,18.69-98.432-1.387-147.603s-57.504-86.025-102.319-106.393
		c-8.569-3.894-18.714,0.247-22.108,9.026C107.835,160.203,106.898,212.721,126.974,261.892z"/>
	<path style="fill:#ED589C;" d="M110.417,405.556c49.632,18.907,102.114,16.727,147.595-2.107
		c8.696-3.601,12.597-13.841,8.501-22.316c-21.422-44.32-59.153-80.866-108.785-99.773s-102.114-16.727-147.595,2.107
		c-8.696,3.601-12.597,13.841-8.501,22.316C23.056,350.104,60.785,386.649,110.417,405.556z"/>
</g>
<g>
	<path style="fill:#EA4296;" d="M57.327,270.4c32.779-4.881,67.225-1.677,100.401,10.961
		c49.633,18.907,87.362,55.452,108.785,99.773c4.096,8.474,0.195,18.714-8.501,22.316c-12.611,5.223-25.761,9.158-39.239,11.725
		c-39.226-11.208-76.234-32.245-107.127-63.139C87.541,327.932,69.447,300.1,57.327,270.4z"/>
	<path style="fill:#EA4296;" d="M183.625,126.337c28.615,21.062,51.974,50.015,66.389,85.318
		c20.076,49.171,19.139,101.689,1.387,147.603c-3.395,8.779-13.539,12.921-22.108,9.027c-16.486-7.492-31.964-17.223-45.955-28.969
		c-13.371-32.752-20.747-68.586-20.747-106.147C162.592,195.344,170.076,159.273,183.625,126.337z"/>
</g>
<path style="fill:#F1709F;" d="M123.035,340.647c37.556,37.556,86.337,57.034,135.542,58.454
	c9.408,0.272,17.157-7.477,16.885-16.885c-1.419-49.206-20.898-97.988-58.454-135.542s-86.337-57.034-135.542-58.454
	c-9.408-0.272-17.157,7.477-16.885,16.885C65.999,254.311,85.479,303.091,123.035,340.647z"/>
<path style="fill:#ED589C;" d="M275.462,382.215c0.272,9.408-7.477,17.157-16.885,16.885c-15.717-0.453-31.389-2.758-46.667-6.897
	c-31.1-45.227-49.318-99.998-49.318-159.036c0-8.313,0.381-16.535,1.088-24.665c19.258,9.442,37.316,22.156,53.329,38.169
	C254.565,284.228,274.044,333.009,275.462,382.215z"/>
<path style="fill:#FFA0C4;" d="M178.504,233.168c0,61.916,24.154,118.182,63.546,159.914c7.533,7.98,20.306,7.98,27.838,0
	c39.392-41.73,63.546-97.998,63.546-159.914s-24.155-118.184-63.547-159.914c-7.533-7.98-20.306-7.98-27.838,0
	C202.658,114.984,178.504,171.252,178.504,233.168z"/>
<path style="fill:#42A555;" d="M476.248,444.731H35.589c-12.624,0-22.858-10.234-22.858-22.858l0,0
	c0-12.624,10.234-22.858,22.858-22.858h440.66c12.624,0,22.858,10.234,22.858,22.858l0,0
	C499.107,434.497,488.873,444.731,476.248,444.731z"/>
<path style="fill:#427451;" d="M476.248,399.014h-36.777c12.624,0,22.858,10.234,22.858,22.858s-10.234,22.858-22.858,22.858h36.777
	c12.624,0,22.858-10.234,22.858-22.858S488.873,399.014,476.248,399.014z"/>
</svg>